<svg width="522" height="322" viewBox="0 0 522 322" fill="none" xmlns="http://www.w3.org/2000/svg">
<path d="M28.125 25.3594H25.8516V30H24.4141V18.625H27.75C28.2812 18.6354 28.7812 18.7109 29.25 18.8516C29.7188 18.9922 30.1276 19.2031 30.4766 19.4844C30.8307 19.7656 31.1068 20.1198 31.3047 20.5469C31.5078 20.9688 31.6094 21.4661 31.6094 22.0391C31.6094 22.4089 31.5547 22.7474 31.4453 23.0547C31.3411 23.362 31.1953 23.6406 31.0078 23.8906C30.8203 24.1406 30.5964 24.362 30.3359 24.5547C30.0755 24.7474 29.7891 24.9115 29.4766 25.0469L31.8906 29.9062L31.8828 30H30.3594L28.125 25.3594ZM25.8516 24.1719H27.7891C28.112 24.1667 28.4167 24.1172 28.7031 24.0234C28.9896 23.9245 29.2396 23.7839 29.4531 23.6016C29.6719 23.4193 29.8438 23.1979 29.9688 22.9375C30.0938 22.6719 30.1562 22.3672 30.1562 22.0234C30.1562 21.6589 30.0964 21.3411 29.9766 21.0703C29.8568 20.7943 29.6901 20.5651 29.4766 20.3828C29.263 20.1953 29.0078 20.0547 28.7109 19.9609C28.4193 19.8672 28.099 19.8177 27.75 19.8125H25.8516V24.1719ZM40.9984 27.0547H37.2016L36.2875 30H34.8422L38.5141 18.625H39.725L43.3344 30H41.8969L40.9984 27.0547ZM37.5922 25.7969H40.6156L39.1156 20.8594L37.5922 25.7969ZM53.9031 30H52.4344L48.0203 21.5L47.9969 30H46.5359V18.625H48.0047L52.4188 27.1094L52.4422 18.625H53.9031V30ZM60.7141 24.7188L59.4484 26.1562V30H57.9719V18.625H59.4484V24.1797L60.55 22.8047L63.8859 18.625H65.6437L61.6672 23.6016L65.9094 30H64.1516L60.7141 24.7188Z" fill="#9F9F9F"/>
<path d="M390.312 27.125C390.312 26.776 390.232 26.4818 390.07 26.2422C389.914 26.0026 389.711 25.8021 389.461 25.6406C389.211 25.474 388.935 25.3359 388.633 25.2266C388.336 25.1172 388.049 25.0182 387.773 24.9297C387.372 24.7995 386.964 24.6432 386.547 24.4609C386.135 24.2786 385.758 24.0547 385.414 23.7891C385.076 23.5234 384.797 23.2109 384.578 22.8516C384.365 22.487 384.258 22.0599 384.258 21.5703C384.258 21.0807 384.365 20.6432 384.578 20.2578C384.797 19.8724 385.081 19.5469 385.43 19.2812C385.779 19.0156 386.174 18.8151 386.617 18.6797C387.06 18.5391 387.505 18.4688 387.953 18.4688C388.448 18.4688 388.924 18.5521 389.383 18.7188C389.841 18.8802 390.247 19.1094 390.602 19.4062C390.956 19.7031 391.24 20.0625 391.453 20.4844C391.667 20.9062 391.779 21.3776 391.789 21.8984H390.305C390.263 21.5703 390.182 21.2734 390.062 21.0078C389.943 20.737 389.784 20.5052 389.586 20.3125C389.388 20.1198 389.151 19.9714 388.875 19.8672C388.604 19.7578 388.297 19.7031 387.953 19.7031C387.677 19.7031 387.406 19.7422 387.141 19.8203C386.88 19.8984 386.646 20.0156 386.438 20.1719C386.234 20.3281 386.07 20.5208 385.945 20.75C385.826 20.9792 385.766 21.2448 385.766 21.5469C385.771 21.875 385.854 22.1536 386.016 22.3828C386.177 22.6068 386.38 22.7969 386.625 22.9531C386.875 23.1094 387.143 23.2396 387.43 23.3438C387.721 23.4479 387.995 23.5391 388.25 23.6172C388.531 23.7057 388.815 23.8073 389.102 23.9219C389.388 24.0312 389.664 24.1589 389.93 24.3047C390.195 24.4505 390.443 24.6146 390.672 24.7969C390.901 24.9792 391.102 25.1875 391.273 25.4219C391.445 25.651 391.578 25.9062 391.672 26.1875C391.771 26.4635 391.82 26.7708 391.82 27.1094C391.82 27.6198 391.706 28.0651 391.477 28.4453C391.253 28.8255 390.961 29.1432 390.602 29.3984C390.242 29.6484 389.836 29.8385 389.383 29.9688C388.93 30.0938 388.477 30.1562 388.023 30.1562C387.518 30.1562 387.023 30.0781 386.539 29.9219C386.055 29.7656 385.62 29.5417 385.234 29.25C384.854 28.9531 384.544 28.5938 384.305 28.1719C384.065 27.7448 383.938 27.2604 383.922 26.7188H385.398C385.445 27.0729 385.542 27.388 385.688 27.6641C385.833 27.9349 386.021 28.1667 386.25 28.3594C386.479 28.5469 386.742 28.6901 387.039 28.7891C387.341 28.8828 387.669 28.9297 388.023 28.9297C388.305 28.9297 388.581 28.8958 388.852 28.8281C389.128 28.7552 389.372 28.6458 389.586 28.5C389.799 28.349 389.974 28.1615 390.109 27.9375C390.245 27.7083 390.312 27.4375 390.312 27.125ZM402.936 26.5781C402.868 27.1042 402.733 27.5885 402.53 28.0312C402.327 28.4688 402.061 28.8464 401.733 29.1641C401.41 29.4766 401.024 29.7214 400.577 29.8984C400.134 30.0703 399.639 30.1562 399.092 30.1562C398.623 30.1562 398.196 30.0911 397.811 29.9609C397.431 29.8255 397.09 29.6406 396.788 29.4062C396.491 29.1719 396.233 28.8958 396.014 28.5781C395.801 28.2604 395.621 27.9141 395.475 27.5391C395.334 27.1641 395.228 26.7708 395.155 26.3594C395.087 25.9479 395.051 25.5312 395.045 25.1094V23.5234C395.051 23.1016 395.087 22.6849 395.155 22.2734C395.228 21.862 395.334 21.4688 395.475 21.0938C395.621 20.7188 395.801 20.3724 396.014 20.0547C396.233 19.7318 396.491 19.4531 396.788 19.2188C397.09 18.9844 397.431 18.8021 397.811 18.6719C398.191 18.5365 398.618 18.4688 399.092 18.4688C399.66 18.4688 400.168 18.5573 400.616 18.7344C401.064 18.9062 401.449 19.1536 401.772 19.4766C402.095 19.7943 402.353 20.1771 402.545 20.625C402.743 21.0729 402.873 21.5677 402.936 22.1094H401.491C401.444 21.7656 401.363 21.4453 401.248 21.1484C401.134 20.8516 400.98 20.5911 400.788 20.3672C400.595 20.1432 400.358 19.9688 400.077 19.8438C399.801 19.7135 399.472 19.6484 399.092 19.6484C398.748 19.6484 398.444 19.7057 398.178 19.8203C397.918 19.9297 397.691 20.0807 397.498 20.2734C397.311 20.4661 397.152 20.6901 397.022 20.9453C396.897 21.2005 396.795 21.4714 396.717 21.7578C396.639 22.0443 396.582 22.3385 396.545 22.6406C396.514 22.9375 396.498 23.2266 396.498 23.5078V25.1094C396.498 25.3906 396.514 25.6823 396.545 25.9844C396.582 26.2812 396.639 26.5755 396.717 26.8672C396.795 27.1536 396.897 27.4245 397.022 27.6797C397.147 27.9349 397.306 28.1615 397.498 28.3594C397.691 28.5521 397.918 28.7057 398.178 28.8203C398.439 28.9297 398.743 28.9844 399.092 28.9844C399.472 28.9844 399.801 28.9245 400.077 28.8047C400.358 28.6849 400.595 28.5182 400.788 28.3047C400.98 28.0859 401.134 27.8307 401.248 27.5391C401.363 27.2422 401.444 26.9219 401.491 26.5781H402.936ZM414.177 24.9688C414.171 25.375 414.135 25.7865 414.067 26.2031C414.005 26.6146 413.906 27.013 413.77 27.3984C413.635 27.7839 413.46 28.1432 413.247 28.4766C413.039 28.8099 412.789 29.1016 412.497 29.3516C412.205 29.6016 411.869 29.7995 411.489 29.9453C411.114 30.0859 410.692 30.1562 410.223 30.1562C409.755 30.1562 409.33 30.0859 408.95 29.9453C408.575 29.7995 408.242 29.6016 407.95 29.3516C407.658 29.1016 407.406 28.8099 407.192 28.4766C406.979 28.138 406.802 27.776 406.661 27.3906C406.526 27.0052 406.424 26.6068 406.356 26.1953C406.289 25.7839 406.252 25.375 406.247 24.9688V23.6719C406.252 23.2656 406.286 22.8568 406.348 22.4453C406.416 22.0286 406.518 21.6276 406.653 21.2422C406.794 20.8568 406.968 20.4974 407.177 20.1641C407.39 19.8255 407.643 19.5312 407.934 19.2812C408.226 19.026 408.559 18.8281 408.934 18.6875C409.315 18.5417 409.739 18.4688 410.208 18.4688C410.677 18.4688 411.101 18.5417 411.481 18.6875C411.861 18.8281 412.197 19.0234 412.489 19.2734C412.781 19.5234 413.031 19.8177 413.239 20.1562C413.453 20.4896 413.627 20.849 413.763 21.2344C413.903 21.6198 414.005 22.0208 414.067 22.4375C414.135 22.8542 414.171 23.2656 414.177 23.6719V24.9688ZM412.747 23.6562C412.742 23.3854 412.723 23.1042 412.692 22.8125C412.661 22.5156 412.606 22.224 412.528 21.9375C412.455 21.6458 412.356 21.3698 412.231 21.1094C412.106 20.8438 411.95 20.612 411.763 20.4141C411.575 20.2109 411.354 20.0521 411.098 19.9375C410.843 19.8177 410.546 19.7578 410.208 19.7578C409.874 19.7578 409.58 19.8177 409.325 19.9375C409.07 20.0573 408.848 20.2188 408.661 20.4219C408.473 20.6198 408.317 20.8516 408.192 21.1172C408.067 21.3776 407.966 21.6536 407.888 21.9453C407.815 22.2318 407.76 22.5234 407.723 22.8203C407.692 23.112 407.674 23.3906 407.669 23.6562V24.9688C407.674 25.2344 407.692 25.5156 407.723 25.8125C407.76 26.1094 407.817 26.4036 407.895 26.6953C407.973 26.9818 408.075 27.2578 408.2 27.5234C408.325 27.7891 408.481 28.0234 408.669 28.2266C408.856 28.4245 409.078 28.5833 409.333 28.7031C409.588 28.8229 409.885 28.8828 410.223 28.8828C410.562 28.8828 410.859 28.8229 411.114 28.7031C411.374 28.5833 411.596 28.4245 411.778 28.2266C411.966 28.0234 412.119 27.7917 412.239 27.5312C412.364 27.2656 412.463 26.9896 412.536 26.7031C412.614 26.4115 412.666 26.1172 412.692 25.8203C412.723 25.5234 412.742 25.2396 412.747 24.9688V23.6562ZM421.753 25.3594H419.48V30H418.042V18.625H421.378C421.909 18.6354 422.409 18.7109 422.878 18.8516C423.347 18.9922 423.756 19.2031 424.105 19.4844C424.459 19.7656 424.735 20.1198 424.933 20.5469C425.136 20.9688 425.237 21.4661 425.237 22.0391C425.237 22.4089 425.183 22.7474 425.073 23.0547C424.969 23.362 424.823 23.6406 424.636 23.8906C424.448 24.1406 424.224 24.362 423.964 24.5547C423.704 24.7474 423.417 24.9115 423.105 25.0469L425.519 29.9062L425.511 30H423.987L421.753 25.3594ZM419.48 24.1719H421.417C421.74 24.1667 422.045 24.1172 422.331 24.0234C422.618 23.9245 422.868 23.7839 423.081 23.6016C423.3 23.4193 423.472 23.1979 423.597 22.9375C423.722 22.6719 423.784 22.3672 423.784 22.0234C423.784 21.6589 423.724 21.3411 423.605 21.0703C423.485 20.7943 423.318 20.5651 423.105 20.3828C422.891 20.1953 422.636 20.0547 422.339 19.9609C422.047 19.8672 421.727 19.8177 421.378 19.8125H419.48V24.1719ZM435.455 24.7422H430.705V28.7734H436.244V30H429.259V18.625H436.173V19.8594H430.705V23.5156H435.455V24.7422Z" fill="#9F9F9F"/>
<path d="M121.744 73.1818H123.278C123.208 71.2067 121.386 69.7301 118.855 69.7301C116.349 69.7301 114.381 71.1875 114.381 73.3864C114.381 75.1506 115.659 76.1989 117.705 76.7869L119.315 77.2472C120.696 77.6307 121.923 78.1165 121.923 79.4205C121.923 80.8523 120.543 81.7983 118.727 81.7983C117.168 81.7983 115.787 81.108 115.659 79.625H114.023C114.176 81.7727 115.915 83.2301 118.727 83.2301C121.744 83.2301 123.457 81.5682 123.457 79.446C123.457 76.9915 121.131 76.1989 119.776 75.8409L118.446 75.483C117.474 75.2273 115.915 74.7159 115.915 73.3097C115.915 72.0568 117.065 71.1364 118.804 71.1364C120.389 71.1364 121.591 71.8906 121.744 73.1818ZM132.047 78.9858C132.047 80.8267 130.64 81.6705 129.515 81.6705C128.263 81.6705 127.368 80.75 127.368 79.3182V73.1818H125.859V79.4205C125.859 81.9261 127.189 83.1278 129.03 83.1278C130.513 83.1278 131.484 82.3352 131.944 81.3381H132.047V83H133.555V73.1818H132.047V78.9858ZM136.318 86.6818H137.827V81.4915H137.955C138.287 82.0284 138.926 83.2045 140.818 83.2045C143.273 83.2045 144.986 81.2358 144.986 78.1165C144.986 75.0227 143.273 73.054 140.793 73.054C138.875 73.054 138.287 74.2301 137.955 74.7415H137.776V73.1818H136.318V86.6818ZM137.801 78.0909C137.801 75.892 138.773 74.4091 140.614 74.4091C142.531 74.4091 143.477 76.0199 143.477 78.0909C143.477 80.1875 142.506 81.8494 140.614 81.8494C138.798 81.8494 137.801 80.3153 137.801 78.0909ZM151.403 83.2045C153.398 83.2045 154.855 82.2074 155.315 80.7244L153.858 80.3153C153.474 81.3381 152.586 81.8494 151.403 81.8494C149.633 81.8494 148.412 80.7053 148.342 78.6023H155.469V77.9631C155.469 74.3068 153.295 73.054 151.25 73.054C148.591 73.054 146.827 75.1506 146.827 78.1676C146.827 81.1847 148.565 83.2045 151.403 83.2045ZM148.342 77.2983C148.444 75.7706 149.524 74.4091 151.25 74.4091C152.886 74.4091 153.935 75.6364 153.935 77.2983H148.342ZM157.763 83H159.272V76.7869C159.272 75.4574 160.32 74.4858 161.752 74.4858C162.155 74.4858 162.57 74.5625 162.673 74.5881V73.054C162.5 73.0412 162.104 73.0284 161.88 73.0284C160.704 73.0284 159.681 73.6932 159.323 74.6648H159.221V73.1818H157.763V83ZM164.665 83H166.123V81.4915H166.302C166.634 82.0284 167.273 83.2045 169.165 83.2045C171.62 83.2045 173.333 81.2358 173.333 78.1165C173.333 75.0227 171.62 73.054 169.14 73.054C167.222 73.054 166.634 74.2301 166.302 74.7415H166.174V69.9091H164.665V83ZM166.148 78.0909C166.148 75.892 167.12 74.4091 168.961 74.4091C170.878 74.4091 171.824 76.0199 171.824 78.0909C171.824 80.1875 170.853 81.8494 168.961 81.8494C167.145 81.8494 166.148 80.3153 166.148 78.0909ZM115.122 136L116.439 132.293H121.732L123.048 136H124.71L119.903 122.909H118.267L113.46 136H115.122ZM116.938 130.886L119.034 124.98H119.136L121.233 130.886H116.938ZM130.199 126.182H128.103V123.83H126.594V126.182H125.111V127.46H126.594V133.597C126.594 135.31 127.975 136.128 129.253 136.128C129.816 136.128 130.174 136.026 130.378 135.949L130.072 134.594C129.944 134.619 129.739 134.67 129.407 134.67C128.742 134.67 128.103 134.466 128.103 133.188V127.46H130.199V126.182ZM136.738 126.182H134.642V123.83H133.133V126.182H131.65V127.46H133.133V133.597C133.133 135.31 134.514 136.128 135.792 136.128C136.355 136.128 136.713 136.026 136.917 135.949L136.611 134.594C136.483 134.619 136.278 134.67 135.946 134.67C135.281 134.67 134.642 134.466 134.642 133.188V127.46H136.738V126.182ZM139.008 136H140.516V129.787C140.516 128.457 141.564 127.486 142.996 127.486C143.399 127.486 143.814 127.562 143.917 127.588V126.054C143.744 126.041 143.348 126.028 143.124 126.028C141.948 126.028 140.925 126.693 140.567 127.665H140.465V126.182H139.008V136ZM148.594 136.23C150.307 136.23 151.202 135.31 151.509 134.67H151.586V136H153.094V129.531C153.094 126.412 150.716 126.054 149.463 126.054C147.98 126.054 146.293 126.565 145.526 128.355L146.958 128.866C147.29 128.151 148.076 127.384 149.515 127.384C150.902 127.384 151.586 128.119 151.586 129.378V129.429C151.586 130.158 150.844 130.094 149.054 130.324C147.233 130.56 145.245 130.963 145.245 133.213C145.245 135.131 146.728 136.23 148.594 136.23ZM148.824 134.875C147.623 134.875 146.753 134.338 146.753 133.29C146.753 132.139 147.801 131.781 148.978 131.628C149.617 131.551 151.33 131.372 151.586 131.065V132.446C151.586 133.673 150.614 134.875 148.824 134.875ZM159.836 136.205C162.009 136.205 163.441 134.875 163.697 133.136H162.188C161.907 134.21 161.012 134.849 159.836 134.849C158.046 134.849 156.896 133.366 156.896 131.091C156.896 128.866 158.072 127.409 159.836 127.409C161.166 127.409 161.958 128.227 162.188 129.122H163.697C163.441 127.281 161.882 126.054 159.811 126.054C157.151 126.054 155.387 128.151 155.387 131.142C155.387 134.082 157.075 136.205 159.836 136.205ZM170.172 126.182H168.075V123.83H166.567V126.182H165.084V127.46H166.567V133.597C166.567 135.31 167.948 136.128 169.226 136.128C169.789 136.128 170.146 136.026 170.351 135.949L170.044 134.594C169.916 134.619 169.712 134.67 169.379 134.67C168.715 134.67 168.075 134.466 168.075 133.188V127.46H170.172V126.182ZM172.441 136H173.95V126.182H172.441V136ZM173.208 124.545C173.796 124.545 174.282 124.085 174.282 123.523C174.282 122.96 173.796 122.5 173.208 122.5C172.62 122.5 172.134 122.96 172.134 123.523C172.134 124.085 172.62 124.545 173.208 124.545ZM184.741 126.182H183.105L180.395 134.006H180.292L177.582 126.182H175.946L179.576 136H181.11L184.741 126.182ZM190.497 136.205C192.491 136.205 193.949 135.207 194.409 133.724L192.952 133.315C192.568 134.338 191.68 134.849 190.497 134.849C188.727 134.849 187.506 133.705 187.435 131.602H194.562V130.963C194.562 127.307 192.389 126.054 190.344 126.054C187.685 126.054 185.92 128.151 185.92 131.168C185.92 134.185 187.659 136.205 190.497 136.205ZM187.435 130.298C187.538 128.771 188.618 127.409 190.344 127.409C191.98 127.409 193.028 128.636 193.028 130.298H187.435ZM114.585 189H119.315C122.409 189 123.688 187.491 123.688 185.523C123.688 183.452 122.256 182.327 121.054 182.25V182.122C122.179 181.815 123.176 181.074 123.176 179.386C123.176 177.469 121.898 175.909 119.162 175.909H114.585V189ZM116.17 187.594V183.043H119.392C121.105 183.043 122.179 184.193 122.179 185.523C122.179 186.673 121.386 187.594 119.315 187.594H116.17ZM116.17 181.662V177.315H119.162C120.901 177.315 121.668 178.236 121.668 179.386C121.668 180.767 120.543 181.662 119.111 181.662H116.17ZM128.977 189.23C130.69 189.23 131.585 188.31 131.892 187.67H131.968V189H133.477V182.531C133.477 179.412 131.099 179.054 129.846 179.054C128.363 179.054 126.676 179.565 125.909 181.355L127.341 181.866C127.673 181.151 128.459 180.384 129.897 180.384C131.284 180.384 131.968 181.119 131.968 182.378V182.429C131.968 183.158 131.227 183.094 129.437 183.324C127.615 183.56 125.627 183.963 125.627 186.213C125.627 188.131 127.11 189.23 128.977 189.23ZM129.207 187.875C128.005 187.875 127.136 187.338 127.136 186.29C127.136 185.139 128.184 184.781 129.36 184.628C130 184.551 131.713 184.372 131.968 184.065V185.446C131.968 186.673 130.997 187.875 129.207 187.875ZM143.185 181.381C142.712 179.987 141.651 179.054 139.708 179.054C137.637 179.054 136.102 180.23 136.102 181.892C136.102 183.247 136.908 184.155 138.71 184.577L140.347 184.96C141.338 185.19 141.804 185.663 141.804 186.341C141.804 187.185 140.909 187.875 139.503 187.875C138.269 187.875 137.496 187.344 137.227 186.29L135.796 186.648C136.147 188.316 137.521 189.205 139.529 189.205C141.811 189.205 143.364 187.958 143.364 186.264C143.364 184.896 142.507 184.033 140.756 183.605L139.298 183.247C138.135 182.96 137.611 182.57 137.611 181.815C137.611 180.972 138.506 180.358 139.708 180.358C141.024 180.358 141.568 181.087 141.83 181.764L143.185 181.381ZM145.635 189H147.143V179.182H145.635V189ZM146.402 177.545C146.99 177.545 147.475 177.085 147.475 176.523C147.475 175.96 146.99 175.5 146.402 175.5C145.814 175.5 145.328 175.96 145.328 176.523C145.328 177.085 145.814 177.545 146.402 177.545ZM153.895 189.205C156.068 189.205 157.5 187.875 157.756 186.136H156.247C155.966 187.21 155.071 187.849 153.895 187.849C152.105 187.849 150.954 186.366 150.954 184.091C150.954 181.866 152.131 180.409 153.895 180.409C155.224 180.409 156.017 181.227 156.247 182.122H157.756C157.5 180.281 155.94 179.054 153.869 179.054C151.21 179.054 149.446 181.151 149.446 184.142C149.446 187.082 151.133 189.205 153.895 189.205ZM125.119 233C124.634 230.315 122.486 228.73 119.852 228.73C116.503 228.73 114.074 231.312 114.074 235.455C114.074 239.597 116.503 242.179 119.852 242.179C122.486 242.179 124.634 240.594 125.119 237.909H123.534C123.151 239.724 121.591 240.696 119.852 240.696C117.474 240.696 115.608 238.855 115.608 235.455C115.608 232.054 117.474 230.213 119.852 230.213C121.591 230.213 123.151 231.185 123.534 233H125.119ZM130.366 242.23C132.079 242.23 132.974 241.31 133.28 240.67H133.357V242H134.866V235.531C134.866 232.412 132.488 232.054 131.235 232.054C129.752 232.054 128.064 232.565 127.297 234.355L128.729 234.866C129.062 234.151 129.848 233.384 131.286 233.384C132.673 233.384 133.357 234.119 133.357 235.378V235.429C133.357 236.158 132.616 236.094 130.826 236.324C129.004 236.56 127.016 236.963 127.016 239.213C127.016 241.131 128.499 242.23 130.366 242.23ZM130.596 240.875C129.394 240.875 128.525 240.338 128.525 239.29C128.525 238.139 129.573 237.781 130.749 237.628C131.388 237.551 133.101 237.372 133.357 237.065V238.446C133.357 239.673 132.385 240.875 130.596 240.875ZM143.806 237.986C143.806 239.827 142.4 240.67 141.275 240.67C140.022 240.67 139.127 239.75 139.127 238.318V232.182H137.619V238.42C137.619 240.926 138.949 242.128 140.789 242.128C142.272 242.128 143.244 241.335 143.704 240.338H143.806V242H145.315V232.182H143.806V237.986ZM152.348 232.182H150.251V229.83H148.743V232.182H147.26V233.46H148.743V239.597C148.743 241.31 150.123 242.128 151.402 242.128C151.964 242.128 152.322 242.026 152.527 241.949L152.22 240.594C152.092 240.619 151.888 240.67 151.555 240.67C150.89 240.67 150.251 240.466 150.251 239.188V233.46H152.348V232.182ZM154.617 242H156.126V232.182H154.617V242ZM155.384 230.545C155.972 230.545 156.458 230.085 156.458 229.523C156.458 228.96 155.972 228.5 155.384 228.5C154.796 228.5 154.31 228.96 154.31 229.523C154.31 230.085 154.796 230.545 155.384 230.545ZM162.877 242.205C165.536 242.205 167.326 240.185 167.326 237.142C167.326 234.074 165.536 232.054 162.877 232.054C160.218 232.054 158.428 234.074 158.428 237.142C158.428 240.185 160.218 242.205 162.877 242.205ZM162.877 240.849C160.857 240.849 159.937 239.111 159.937 237.142C159.937 235.173 160.857 233.409 162.877 233.409C164.897 233.409 165.817 235.173 165.817 237.142C165.817 239.111 164.897 240.849 162.877 240.849ZM171.137 236.094C171.137 234.381 172.198 233.409 173.643 233.409C175.043 233.409 175.893 234.323 175.893 235.864V242H177.401V235.761C177.401 233.256 176.066 232.054 174.078 232.054C172.595 232.054 171.674 232.719 171.214 233.716H171.086V232.182H169.629V242H171.137V236.094ZM114.585 295H116.17V289.145H121.847V287.739H116.17V283.315H122.435V281.909H114.585V295ZM124.84 295H126.348V288.787C126.348 287.457 127.396 286.486 128.828 286.486C129.231 286.486 129.646 286.562 129.749 286.588V285.054C129.576 285.041 129.18 285.028 128.956 285.028C127.78 285.028 126.757 285.693 126.399 286.665H126.297V285.182H124.84V295ZM134.426 295.23C136.139 295.23 137.034 294.31 137.341 293.67H137.418V295H138.926V288.531C138.926 285.412 136.548 285.054 135.295 285.054C133.812 285.054 132.125 285.565 131.358 287.355L132.79 287.866C133.122 287.151 133.908 286.384 135.347 286.384C136.734 286.384 137.418 287.119 137.418 288.378V288.429C137.418 289.158 136.676 289.094 134.886 289.324C133.065 289.56 131.077 289.963 131.077 292.213C131.077 294.131 132.56 295.23 134.426 295.23ZM134.656 293.875C133.455 293.875 132.585 293.338 132.585 292.29C132.585 291.139 133.634 290.781 134.81 290.628C135.449 290.551 137.162 290.372 137.418 290.065V291.446C137.418 292.673 136.446 293.875 134.656 293.875ZM145.643 298.886C147.995 298.886 149.887 297.812 149.887 295.281V285.182H148.43V286.741H148.276C147.944 286.23 147.33 285.054 145.412 285.054C142.932 285.054 141.219 287.023 141.219 290.04C141.219 293.108 143.009 294.847 145.387 294.847C147.305 294.847 147.918 293.722 148.251 293.185H148.378V295.179C148.378 296.815 147.228 297.557 145.643 297.557C143.859 297.557 143.233 296.617 142.83 296.074L141.628 296.918C142.242 297.947 143.45 298.886 145.643 298.886ZM145.591 293.491C143.699 293.491 142.728 292.06 142.728 290.014C142.728 288.02 143.674 286.409 145.591 286.409C147.432 286.409 148.404 287.892 148.404 290.014C148.404 292.188 147.407 293.491 145.591 293.491ZM152.648 295H154.157V285.182H152.648V295ZM153.415 283.545C154.003 283.545 154.489 283.085 154.489 282.523C154.489 281.96 154.003 281.5 153.415 281.5C152.827 281.5 152.341 281.96 152.341 282.523C152.341 283.085 152.827 283.545 153.415 283.545ZM158.428 281.909H156.92V295H158.428V281.909ZM165.308 295.205C167.302 295.205 168.759 294.207 169.22 292.724L167.762 292.315C167.379 293.338 166.49 293.849 165.308 293.849C163.537 293.849 162.316 292.705 162.246 290.602H169.373V289.963C169.373 286.307 167.2 285.054 165.154 285.054C162.495 285.054 160.731 287.151 160.731 290.168C160.731 293.185 162.47 295.205 165.308 295.205ZM162.246 289.298C162.348 287.771 163.428 286.409 165.154 286.409C166.791 286.409 167.839 287.636 167.839 289.298H162.246Z" fill="black"/>
<path d="M388.523 69.7045C385.864 69.679 384.151 71.6733 384.151 74.1023C384.151 76.6335 386.017 78.4489 388.267 78.4489C389.622 78.4489 390.773 77.7841 391.489 76.7102H391.591C391.591 79.9318 390.338 81.7727 388.318 81.7727C386.938 81.7727 386.094 80.9034 385.812 79.7017H384.253C384.56 81.7727 386.119 83.179 388.318 83.179C391.259 83.179 393.074 80.571 393.074 75.9176C393.074 71.0852 390.67 69.7301 388.523 69.7045ZM388.523 71.1108C390.159 71.1108 391.361 72.517 391.361 74.0767C391.361 75.6364 390.082 77.0426 388.472 77.0426C386.861 77.0426 385.685 75.7386 385.685 74.1023C385.685 72.4403 386.912 71.1108 388.523 71.1108ZM399.857 83.179C402.747 83.179 404.409 80.7308 404.409 76.4545C404.409 72.2102 402.721 69.7301 399.857 69.7301C396.994 69.7301 395.306 72.2102 395.306 76.4545C395.306 80.7308 396.968 83.179 399.857 83.179ZM399.857 81.7727C397.953 81.7727 396.84 79.8615 396.84 76.4545C396.84 73.054 397.965 71.1108 399.857 71.1108C401.749 71.1108 402.874 73.054 402.874 76.4545C402.874 79.8615 401.762 81.7727 399.857 81.7727ZM411.107 83.179C413.997 83.179 415.659 80.7308 415.659 76.4545C415.659 72.2102 413.971 69.7301 411.107 69.7301C408.244 69.7301 406.556 72.2102 406.556 76.4545C406.556 80.7308 408.218 83.179 411.107 83.179ZM411.107 81.7727C409.203 81.7727 408.09 79.8615 408.09 76.4545C408.09 73.054 409.215 71.1108 411.107 71.1108C412.999 71.1108 414.124 73.054 414.124 76.4545C414.124 79.8615 413.012 81.7727 411.107 81.7727ZM423.738 75.7514H418.011V77.1577H423.738V75.7514ZM430.969 69.9091H429.384L426.111 72.0824V73.6932L429.307 71.571H429.384V83H430.969V69.9091ZM439.004 83.179C441.893 83.179 443.555 80.7308 443.555 76.4545C443.555 72.2102 441.868 69.7301 439.004 69.7301C436.14 69.7301 434.453 72.2102 434.453 76.4545C434.453 80.7308 436.115 83.179 439.004 83.179ZM439.004 81.7727C437.099 81.7727 435.987 79.8615 435.987 76.4545C435.987 73.054 437.112 71.1108 439.004 71.1108C440.896 71.1108 442.021 73.054 442.021 76.4545C442.021 79.8615 440.909 81.7727 439.004 81.7727ZM450.254 83.179C453.143 83.179 454.805 80.7308 454.805 76.4545C454.805 72.2102 453.118 69.7301 450.254 69.7301C447.39 69.7301 445.703 72.2102 445.703 76.4545C445.703 80.7308 447.365 83.179 450.254 83.179ZM450.254 81.7727C448.349 81.7727 447.237 79.8615 447.237 76.4545C447.237 73.054 448.362 71.1108 450.254 71.1108C452.146 71.1108 453.271 73.054 453.271 76.4545C453.271 79.8615 452.159 81.7727 450.254 81.7727ZM461.504 83.179C464.393 83.179 466.055 80.7308 466.055 76.4545C466.055 72.2102 464.368 69.7301 461.504 69.7301C458.64 69.7301 456.953 72.2102 456.953 76.4545C456.953 80.7308 458.615 83.179 461.504 83.179ZM461.504 81.7727C459.599 81.7727 458.487 79.8615 458.487 76.4545C458.487 73.054 459.612 71.1108 461.504 71.1108C463.396 71.1108 464.521 73.054 464.521 76.4545C464.521 79.8615 463.409 81.7727 461.504 81.7727ZM384.764 136H386.426L392.256 124.392V122.909H383.869V124.315H390.619V124.418L384.764 136ZM398.553 136.179C401.046 136.179 402.874 134.338 402.874 131.832C402.874 129.295 401.11 127.435 398.707 127.435C397.825 127.435 396.968 127.748 396.431 128.176H396.355L396.815 124.315H402.286V122.909H395.485L394.693 129.352L396.176 129.531C396.719 129.141 397.646 128.86 398.451 128.866C400.119 128.879 401.34 130.145 401.34 131.858C401.34 133.539 400.164 134.773 398.553 134.773C397.211 134.773 396.144 133.91 396.022 132.727H394.488C394.584 134.722 396.303 136.179 398.553 136.179ZM409.684 136.179C412.573 136.179 414.235 133.731 414.235 129.455C414.235 125.21 412.547 122.73 409.684 122.73C406.82 122.73 405.132 125.21 405.132 129.455C405.132 133.731 406.794 136.179 409.684 136.179ZM409.684 134.773C407.779 134.773 406.667 132.862 406.667 129.455C406.667 126.054 407.792 124.111 409.684 124.111C411.576 124.111 412.701 126.054 412.701 129.455C412.701 132.862 411.588 134.773 409.684 134.773ZM422.314 128.751H416.587V130.158H422.314V128.751ZM429.136 136.179C431.751 136.179 433.572 134.651 433.585 132.523C433.572 130.867 432.466 129.461 431.054 129.199V129.122C432.281 128.803 433.086 127.601 433.099 126.207C433.086 124.213 431.412 122.73 429.136 122.73C426.835 122.73 425.16 124.213 425.173 126.207C425.16 127.601 425.966 128.803 427.219 129.122V129.199C425.78 129.461 424.675 130.867 424.687 132.523C424.675 134.651 426.496 136.179 429.136 136.179ZM429.136 134.773C427.34 134.773 426.234 133.852 426.247 132.446C426.234 130.969 427.455 129.915 429.136 129.915C430.792 129.915 432.013 130.969 432.025 132.446C432.013 133.852 430.907 134.773 429.136 134.773ZM429.136 128.56C427.704 128.56 426.694 127.665 426.707 126.31C426.694 124.98 427.666 124.111 429.136 124.111C430.581 124.111 431.552 124.98 431.565 126.31C431.552 127.665 430.542 128.56 429.136 128.56ZM440.202 122.705C437.543 122.679 435.83 124.673 435.83 127.102C435.83 129.634 437.697 131.449 439.947 131.449C441.302 131.449 442.452 130.784 443.168 129.71H443.271C443.271 132.932 442.018 134.773 439.998 134.773C438.617 134.773 437.773 133.903 437.492 132.702H435.933C436.239 134.773 437.799 136.179 439.998 136.179C442.938 136.179 444.754 133.571 444.754 128.918C444.754 124.085 442.35 122.73 440.202 122.705ZM440.202 124.111C441.839 124.111 443.04 125.517 443.04 127.077C443.04 128.636 441.762 130.043 440.151 130.043C438.54 130.043 437.364 128.739 437.364 127.102C437.364 125.44 438.592 124.111 440.202 124.111ZM451.435 122.705C448.776 122.679 447.063 124.673 447.063 127.102C447.063 129.634 448.929 131.449 451.179 131.449C452.534 131.449 453.685 130.784 454.401 129.71H454.503C454.503 132.932 453.25 134.773 451.23 134.773C449.85 134.773 449.006 133.903 448.725 132.702H447.165C447.472 134.773 449.031 136.179 451.23 136.179C454.171 136.179 455.986 133.571 455.986 128.918C455.986 124.085 453.583 122.73 451.435 122.705ZM451.435 124.111C453.071 124.111 454.273 125.517 454.273 127.077C454.273 128.636 452.994 130.043 451.384 130.043C449.773 130.043 448.597 128.739 448.597 127.102C448.597 125.44 449.824 124.111 451.435 124.111ZM388.702 189.179C391.348 189.211 393.074 187.217 393.074 184.781C393.074 182.25 391.201 180.435 388.957 180.435C387.609 180.435 386.452 181.093 385.736 182.173H385.634C385.64 178.958 386.88 177.111 388.906 177.111C390.287 177.111 391.118 177.98 391.412 179.182H392.972C392.652 177.124 391.105 175.705 388.906 175.705C385.96 175.705 384.151 178.312 384.151 182.966C384.151 187.805 386.554 189.153 388.702 189.179ZM388.702 187.773C387.059 187.773 385.857 186.373 385.864 184.807C385.87 183.241 387.129 181.841 388.753 181.841C390.357 181.841 391.54 183.158 391.54 184.781C391.54 186.443 390.306 187.773 388.702 187.773ZM399.678 189.179C402.171 189.179 403.999 187.338 403.999 184.832C403.999 182.295 402.235 180.435 399.832 180.435C398.95 180.435 398.093 180.748 397.556 181.176H397.48L397.94 177.315H403.411V175.909H396.61L395.818 182.352L397.301 182.531C397.844 182.141 398.771 181.86 399.576 181.866C401.244 181.879 402.465 183.145 402.465 184.858C402.465 186.539 401.289 187.773 399.678 187.773C398.336 187.773 397.269 186.91 397.147 185.727H395.613C395.709 187.722 397.428 189.179 399.678 189.179ZM410.809 189.179C413.698 189.179 415.36 186.731 415.36 182.455C415.36 178.21 413.672 175.73 410.809 175.73C407.945 175.73 406.257 178.21 406.257 182.455C406.257 186.731 407.919 189.179 410.809 189.179ZM410.809 187.773C408.904 187.773 407.792 185.862 407.792 182.455C407.792 179.054 408.917 177.111 410.809 177.111C412.701 177.111 413.826 179.054 413.826 182.455C413.826 185.862 412.713 187.773 410.809 187.773ZM423.439 181.751H417.712V183.158H423.439V181.751ZM426.073 189H427.735L433.564 177.392V175.909H425.178V177.315H431.928V177.418L426.073 189ZM434.585 186.315H440.747V189H442.256V186.315H444.046V184.909H442.256V175.909H440.338L434.585 185.011V186.315ZM440.747 184.909H436.298V184.807L440.645 177.929H440.747V184.909ZM450.609 175.705C447.95 175.679 446.237 177.673 446.237 180.102C446.237 182.634 448.103 184.449 450.353 184.449C451.708 184.449 452.859 183.784 453.575 182.71H453.677C453.677 185.932 452.424 187.773 450.404 187.773C449.023 187.773 448.18 186.903 447.898 185.702H446.339C446.646 187.773 448.205 189.179 450.404 189.179C453.344 189.179 455.16 186.571 455.16 181.918C455.16 177.085 452.756 175.73 450.609 175.705ZM450.609 177.111C452.245 177.111 453.447 178.517 453.447 180.077C453.447 181.636 452.168 183.043 450.558 183.043C448.947 183.043 447.771 181.739 447.771 180.102C447.771 178.44 448.998 177.111 450.609 177.111ZM388.446 242.179C390.939 242.179 392.767 240.338 392.767 237.832C392.767 235.295 391.003 233.435 388.599 233.435C387.717 233.435 386.861 233.748 386.324 234.176H386.247L386.707 230.315H392.179V228.909H385.378L384.585 235.352L386.068 235.531C386.612 235.141 387.538 234.86 388.344 234.866C390.012 234.879 391.233 236.145 391.233 237.858C391.233 239.539 390.057 240.773 388.446 240.773C387.104 240.773 386.036 239.91 385.915 238.727H384.381C384.477 240.722 386.196 242.179 388.446 242.179ZM399.576 242.179C402.465 242.179 404.127 239.731 404.127 235.455C404.127 231.21 402.44 228.73 399.576 228.73C396.713 228.73 395.025 231.21 395.025 235.455C395.025 239.731 396.687 242.179 399.576 242.179ZM399.576 240.773C397.671 240.773 396.559 238.862 396.559 235.455C396.559 232.054 397.684 230.111 399.576 230.111C401.468 230.111 402.593 232.054 402.593 235.455C402.593 238.862 401.481 240.773 399.576 240.773ZM410.826 242.179C413.715 242.179 415.377 239.731 415.377 235.455C415.377 231.21 413.69 228.73 410.826 228.73C407.963 228.73 406.275 231.21 406.275 235.455C406.275 239.731 407.937 242.179 410.826 242.179ZM410.826 240.773C408.921 240.773 407.809 238.862 407.809 235.455C407.809 232.054 408.934 230.111 410.826 230.111C412.718 230.111 413.843 232.054 413.843 235.455C413.843 238.862 412.731 240.773 410.826 240.773ZM423.457 234.751H417.73V236.158H423.457V234.751ZM430.432 242.179C433.078 242.211 434.804 240.217 434.804 237.781C434.804 235.25 432.931 233.435 430.688 233.435C429.339 233.435 428.182 234.093 427.466 235.173H427.364C427.37 231.958 428.61 230.111 430.637 230.111C432.017 230.111 432.848 230.98 433.142 232.182H434.702C434.382 230.124 432.836 228.705 430.637 228.705C427.69 228.705 425.881 231.312 425.881 235.966C425.881 240.805 428.284 242.153 430.432 242.179ZM430.432 240.773C428.789 240.773 427.588 239.373 427.594 237.807C427.6 236.241 428.86 234.841 430.483 234.841C432.088 234.841 433.27 236.158 433.27 237.781C433.27 239.443 432.037 240.773 430.432 240.773ZM437.011 239.315H443.173V242H444.682V239.315H446.471V237.909H444.682V228.909H442.764L437.011 238.011V239.315ZM443.173 237.909H438.724V237.807L443.071 230.929H443.173V237.909ZM453.034 228.705C450.375 228.679 448.662 230.673 448.662 233.102C448.662 235.634 450.529 237.449 452.779 237.449C454.134 237.449 455.284 236.784 456 235.71H456.103C456.103 238.932 454.85 240.773 452.83 240.773C451.449 240.773 450.605 239.903 450.324 238.702H448.765C449.071 240.773 450.631 242.179 452.83 242.179C455.77 242.179 457.586 239.571 457.586 234.918C457.586 230.085 455.182 228.73 453.034 228.705ZM453.034 230.111C454.671 230.111 455.873 231.517 455.873 233.077C455.873 234.636 454.594 236.043 452.983 236.043C451.373 236.043 450.196 234.739 450.196 233.102C450.196 231.44 451.424 230.111 453.034 230.111ZM384.585 295H389.315C392.409 295 393.688 293.491 393.688 291.523C393.688 289.452 392.256 288.327 391.054 288.25V288.122C392.179 287.815 393.176 287.074 393.176 285.386C393.176 283.469 391.898 281.909 389.162 281.909H384.585V295ZM386.17 293.594V289.043H389.392C391.105 289.043 392.179 290.193 392.179 291.523C392.179 292.673 391.386 293.594 389.315 293.594H386.17ZM386.17 287.662V283.315H389.162C390.901 283.315 391.668 284.236 391.668 285.386C391.668 286.767 390.543 287.662 389.111 287.662H386.17ZM400.204 295.205C402.199 295.205 403.656 294.207 404.116 292.724L402.659 292.315C402.275 293.338 401.387 293.849 400.204 293.849C398.434 293.849 397.213 292.705 397.142 290.602H404.27V289.963C404.27 286.307 402.096 285.054 400.051 285.054C397.392 285.054 395.627 287.151 395.627 290.168C395.627 293.185 397.366 295.205 400.204 295.205ZM397.142 289.298C397.245 287.771 398.325 286.409 400.051 286.409C401.687 286.409 402.735 287.636 402.735 289.298H397.142ZM408.073 281.909H406.564V295H408.073V281.909ZM414.824 295.205C417.483 295.205 419.273 293.185 419.273 290.142C419.273 287.074 417.483 285.054 414.824 285.054C412.165 285.054 410.376 287.074 410.376 290.142C410.376 293.185 412.165 295.205 414.824 295.205ZM414.824 293.849C412.805 293.849 411.884 292.111 411.884 290.142C411.884 288.173 412.805 286.409 414.824 286.409C416.844 286.409 417.765 288.173 417.765 290.142C417.765 292.111 416.844 293.849 414.824 293.849ZM423.466 295H424.949L427.097 287.457H427.251L429.398 295H430.881L433.873 285.182H432.287L430.165 292.673H430.063L427.992 285.182H426.381L424.285 292.699H424.182L422.06 285.182H420.475L423.466 295ZM444.995 295.179C447.488 295.179 449.316 293.338 449.316 290.832C449.316 288.295 447.552 286.435 445.148 286.435C444.266 286.435 443.41 286.748 442.873 287.176H442.796L443.256 283.315H448.728V281.909H441.927L441.134 288.352L442.617 288.531C443.16 288.141 444.087 287.86 444.893 287.866C446.561 287.879 447.782 289.145 447.782 290.858C447.782 292.539 446.606 293.773 444.995 293.773C443.653 293.773 442.585 292.91 442.464 291.727H440.93C441.025 293.722 442.745 295.179 444.995 295.179ZM456.125 295.179C459.014 295.179 460.676 292.731 460.676 288.455C460.676 284.21 458.989 281.73 456.125 281.73C453.261 281.73 451.574 284.21 451.574 288.455C451.574 292.731 453.236 295.179 456.125 295.179ZM456.125 293.773C454.22 293.773 453.108 291.862 453.108 288.455C453.108 285.054 454.233 283.111 456.125 283.111C458.017 283.111 459.142 285.054 459.142 288.455C459.142 291.862 458.03 293.773 456.125 293.773ZM467.375 295.179C470.264 295.179 471.926 292.731 471.926 288.455C471.926 284.21 470.239 281.73 467.375 281.73C464.511 281.73 462.824 284.21 462.824 288.455C462.824 292.731 464.486 295.179 467.375 295.179ZM467.375 293.773C465.47 293.773 464.358 291.862 464.358 288.455C464.358 285.054 465.483 283.111 467.375 283.111C469.267 283.111 470.392 285.054 470.392 288.455C470.392 291.862 469.28 293.773 467.375 293.773Z" fill="black"/>
<rect x="22" y="62" width="78" height="34" rx="3" fill="#00E685"/>
<rect x="22" y="114" width="78" height="34" rx="3" fill="#73EFBB"/>
<rect x="22" y="166" width="78" height="34" rx="3" fill="#BFEFDB"/>
<rect x="22" y="218" width="78" height="34" rx="3" fill="#FFAC70"/>
<rect x="22" y="270" width="78" height="34" rx="3" fill="#FF4D4D"/>
<path d="M63.7959 81.6602C63.7959 81.4316 63.7549 81.2178 63.6729 81.0186C63.5967 80.8193 63.4619 80.6348 63.2686 80.4648C63.0811 80.2891 62.832 80.1309 62.5215 79.9902C62.2168 79.8438 61.8359 79.709 61.3789 79.5859C60.8223 79.4336 60.2891 79.2432 59.7793 79.0146C59.2754 78.7861 58.8301 78.5107 58.4434 78.1885C58.0566 77.8662 57.7461 77.4912 57.5117 77.0635C57.2832 76.6357 57.1689 76.1436 57.1689 75.5869C57.1689 75.0479 57.2832 74.5586 57.5117 74.1191C57.7402 73.6797 58.0566 73.3047 58.4609 72.9941C58.8652 72.6836 59.3428 72.4463 59.8936 72.2822C60.4443 72.1123 61.042 72.0273 61.6865 72.0273C62.3545 72.0273 62.9639 72.124 63.5146 72.3174C64.0713 72.5107 64.5488 72.7832 64.9473 73.1348C65.3457 73.4805 65.6562 73.8936 65.8789 74.374C66.1016 74.8545 66.2129 75.3818 66.2129 75.9561H63.8047C63.793 75.6689 63.7402 75.4053 63.6465 75.165C63.5586 74.9248 63.4238 74.7197 63.2422 74.5498C63.0664 74.374 62.8438 74.2393 62.5742 74.1455C62.3105 74.0459 62 73.9961 61.6426 73.9961C61.3145 73.9961 61.0215 74.0371 60.7637 74.1191C60.5117 74.1953 60.2979 74.3066 60.1221 74.4531C59.9463 74.5938 59.8115 74.7637 59.7178 74.9629C59.6299 75.1562 59.5859 75.3672 59.5859 75.5957C59.5859 75.8359 59.6445 76.0527 59.7617 76.2461C59.8848 76.4395 60.0605 76.6152 60.2891 76.7734C60.5176 76.9258 60.793 77.0664 61.1152 77.1953C61.4434 77.3242 61.8125 77.4443 62.2227 77.5557C62.8086 77.7256 63.3477 77.9336 63.8398 78.1797C64.332 78.4258 64.7539 78.7188 65.1055 79.0586C65.4629 79.3926 65.7383 79.7764 65.9316 80.21C66.1309 80.6377 66.2305 81.1152 66.2305 81.6426C66.2305 82.2051 66.1162 82.7061 65.8877 83.1455C65.665 83.5791 65.3545 83.9482 64.9561 84.2529C64.5576 84.5518 64.083 84.7803 63.5322 84.9385C62.9814 85.0908 62.3809 85.167 61.7305 85.167C61.3262 85.167 60.9219 85.1289 60.5176 85.0527C60.1191 84.9824 59.7354 84.8711 59.3662 84.7188C59.0029 84.5664 58.6631 84.376 58.3467 84.1475C58.0303 83.9189 57.7549 83.6523 57.5205 83.3477C57.292 83.043 57.1104 82.6973 56.9756 82.3105C56.8467 81.9238 56.7822 81.4961 56.7822 81.0273H59.208C59.2197 81.4141 59.2871 81.7451 59.4102 82.0205C59.5332 82.2959 59.7031 82.5215 59.9199 82.6973C60.1426 82.873 60.4062 83.002 60.7109 83.084C61.0215 83.166 61.3613 83.207 61.7305 83.207C62.0586 83.207 62.3486 83.1689 62.6006 83.0928C62.8584 83.0166 63.0752 82.9111 63.251 82.7764C63.4268 82.6416 63.5615 82.4805 63.6553 82.293C63.749 82.0996 63.7959 81.8887 63.7959 81.6602Z" fill="black"/>
<path d="M63.4443 134.328H59.6035L58.8477 137H56.2461L60.4385 124.203H62.6797L66.793 137H64.1914L63.4443 134.328ZM60.21 132.228H62.8643L61.5547 127.517L60.21 132.228Z" fill="black"/>
<path d="M57.1338 189V176.203H61.4316C62.1289 176.203 62.7617 176.273 63.3301 176.414C63.9043 176.555 64.3936 176.769 64.7979 177.056C65.2021 177.343 65.5127 177.706 65.7295 178.146C65.9521 178.585 66.0635 179.104 66.0635 179.701C66.0576 180.299 65.8965 180.835 65.5801 181.31C65.2695 181.784 64.8096 182.145 64.2002 182.391C64.5693 182.484 64.8887 182.625 65.1582 182.812C65.4277 183 65.6504 183.223 65.8262 183.48C66.0078 183.732 66.1396 184.011 66.2217 184.315C66.3096 184.614 66.3535 184.925 66.3535 185.247C66.3535 185.862 66.248 186.404 66.0371 186.873C65.8262 187.342 65.5244 187.734 65.1318 188.051C64.7393 188.367 64.2617 188.604 63.6992 188.763C63.1367 188.921 62.5039 189 61.8008 189H57.1338ZM59.6123 183.357V187.005H61.8096C62.4834 186.999 62.9961 186.835 63.3477 186.513C63.7051 186.185 63.8838 185.757 63.8838 185.229C63.8896 184.644 63.7314 184.187 63.4092 183.858C63.0869 183.53 62.5889 183.363 61.915 183.357H59.6123ZM59.6123 181.573H61.4492C62.1348 181.567 62.6621 181.424 63.0312 181.143C63.4004 180.861 63.5879 180.448 63.5938 179.903C63.5938 179.306 63.4092 178.878 63.04 178.62C62.6709 178.356 62.1377 178.222 61.4404 178.216H59.6123V181.573Z" fill="black"/>
<path d="M66.0371 236.992C65.9961 237.637 65.8555 238.217 65.6152 238.732C65.3809 239.248 65.0645 239.688 64.666 240.051C64.2676 240.414 63.793 240.695 63.2422 240.895C62.6914 241.088 62.082 241.185 61.4141 241.185C60.6582 241.185 59.9873 241.047 59.4014 240.771C58.8154 240.49 58.3232 240.101 57.9248 239.603C57.5264 239.099 57.2217 238.495 57.0107 237.792C56.7998 237.089 56.6943 236.315 56.6943 235.472V233.749C56.6943 232.899 56.8057 232.123 57.0283 231.42C57.251 230.717 57.5674 230.113 57.9775 229.609C58.3877 229.105 58.8828 228.716 59.4629 228.44C60.0488 228.159 60.7051 228.019 61.4316 228.019C62.1348 228.019 62.7588 228.118 63.3037 228.317C63.8545 228.517 64.3232 228.801 64.71 229.17C65.0967 229.539 65.4014 229.99 65.624 230.523C65.8467 231.057 65.9873 231.657 66.0459 232.325H63.585C63.5615 231.944 63.5029 231.61 63.4092 231.323C63.3213 231.036 63.1895 230.799 63.0137 230.611C62.8438 230.418 62.627 230.274 62.3633 230.181C62.1055 230.081 61.7949 230.031 61.4316 230.031C61.0508 230.031 60.7197 230.113 60.4385 230.277C60.1572 230.441 59.9229 230.682 59.7354 230.998C59.5537 231.314 59.4189 231.704 59.3311 232.167C59.2432 232.624 59.1992 233.146 59.1992 233.731V235.472C59.1992 236.731 59.375 237.663 59.7266 238.267C60.084 238.87 60.6465 239.172 61.4141 239.172C62.0586 239.172 62.5684 239.002 62.9434 238.662C63.3184 238.316 63.5264 237.76 63.5674 236.992H66.0371Z" fill="black"/>
<path d="M65.2725 288.7H59.7881V294H57.3096V281.203H65.958V283.216H59.7881V286.696H65.2725V288.7Z" fill="black"/>
<rect y="46" width="522" height="1" fill="#F6F6F6"/>
</svg>
